<svg xmlns="http://www.w3.org/2000/svg" width="40" height="50" viewBox="0 0 40 50">
    <g fill="#2695FC" fill-rule="evenodd">
        <path fill-rule="nonzero" d="M36.63 29.842a1.328 1.328 0 0 0-.061-.019l-5.495-1.56-3.901-3.707v-.996c1.867-1.857 3.043-4.422 3.043-7.252v-6.054C30.216 4.615 25.63 0 19.94 0 14.265 0 9.647 4.6 9.647 10.254v6.054c0 2.83 1.176 5.395 3.043 7.252v.996l-3.876 3.701-5.392 1.569-.052.016c-2.367.786-3.753 3.281-3.17 5.693l2.6 13.28a1.47 1.47 0 0 0 1.565 1.179c.037.003.074.006.112.006h31.139c.698 0 1.3-.49 1.44-1.17l2.742-13.287c.588-2.415-.798-4.914-3.168-5.7zm-8.3-.144l-4.206 6.284-2.292-2.284 4.16-6.245 2.338 2.245zM19.941 2.93a7.356 7.356 0 0 1 5.88 2.931 7.393 7.393 0 0 1-5.88 2.928h-7.205a7.358 7.358 0 0 1 7.205-5.86zM12.57 16.308v-4.59h7.372a10.35 10.35 0 0 0 7.204-2.934c.098.475.15.967.15 1.47v6.054c0 4.04-3.3 7.325-7.354 7.325s-7.372-3.286-7.372-7.325zm1.322 11.145l4.16 6.245-2.293 2.284-4.206-6.284 2.339-2.245zm4.58 19.617H5.455c-.011-.056-2.378-12.15-2.392-12.205a1.891 1.891 0 0 1 1.214-2.236l4.773-1.388 5.256 7.853a1.474 1.474 0 0 0 2.263.223l1.902-1.894v9.647zm-2.057-21.128c1.1.401 2.289.62 3.527.62 1.239 0 2.427-.219 3.527-.62l-3.527 5.295-3.527-5.295zm20.509 8.983L34.417 47.07H21.392v-9.647l1.921 1.894c.656.654 1.75.545 2.263-.223l5.256-7.854 4.895 1.39c.803.28 1.444 1.103 1.196 2.295z"/>
        <path d="M31.706 41.21h-2.941c-.813 0-1.471.657-1.471 1.466 0 .809.658 1.464 1.47 1.464h2.942c.812 0 1.47-.655 1.47-1.464 0-.81-.658-1.465-1.47-1.465z"/>
    </g>
</svg>
