<svg xmlns="http://www.w3.org/2000/svg" width="479" height="200" viewBox="0 0 479 200">
    <g fill="#444" fill-rule="evenodd">
        <path id="kz-k-kayzor"	d="M123.81 98.042V40.03h11.913v28.144l22.78-28.144h10.303l-20.647 26.027 25.638 31.986H158.3l-22.578-28.536v28.536h-11.914zm54.005 0l23.182-58.013h12.396l23.183 58.013h-12.718L217.66 82.56h-24.632l-6.198 15.483h-9.015zm18.272-23.205h18.514l-9.257-23.127-9.257 23.127zm65.114 23.205V73.74l-20.003-33.71h13.684l14.53 24.499 15.173-24.499h9.82l-20.808 33.632v24.381h-12.396zm41.247 0V89.81l29.622-41.824h-27.932V40.03h42.34v7.957L316.856 89.81h29.622v8.232h-44.03zm84.432 1.45c-9.042 0-16.273-2.77-21.693-8.31-5.42-5.54-8.13-12.922-8.13-22.146 0-9.33 2.723-16.738 8.17-22.226 5.447-5.487 12.799-8.231 22.056-8.231 9.203 0 16.535 2.744 21.995 8.231 5.46 5.488 8.19 12.857 8.19 22.108 0 9.46-2.73 16.92-8.19 22.382-5.46 5.462-12.926 8.192-22.398 8.192zm.161-7.996c5.313 0 9.519-2.032 12.618-6.095 3.099-4.064 4.648-9.571 4.648-16.522 0-6.742-1.556-12.152-4.668-16.228-3.113-4.077-7.231-6.115-12.356-6.115-5.179 0-9.318 2.038-12.417 6.115-3.099 4.076-4.648 9.525-4.648 16.345 0 6.769 1.543 12.21 4.628 16.326 3.086 4.116 7.15 6.174 12.195 6.174zm43.582 6.546V40.03h22.297c12.1 0 18.151 4.795 18.151 14.386 0 3.58-1.026 6.84-3.079 9.78-2.052 2.94-4.876 5.193-8.472 6.761L479 98.042h-15.093l-14.77-23.715h-6.843v23.715h-11.671zm11.671-31.672h2.858c8.989 0 13.483-3.54 13.483-10.623 0-5.174-4.011-7.76-12.034-7.76h-4.307V66.37zM17.125 144.548V17.521h26.02v56.854L101.312 0l-.711 33.89L74.9 68.781l28.974 37.41 5.728 55.877-66.458-84.172v66.651z"/>
        <path id="kz-dash"	d="M0 72.414h21.92l87.682 105.588V200z"/>
        <path id="kz-subtext"	d="M127.869 148.998v-24.751h2.955v10.843c1.21-2.365 3.025-3.547 5.445-3.547 1.96 0 3.502.742 4.627 2.225s1.687 3.51 1.687 6.083c0 2.8-.637 5.058-1.912 6.775-1.275 1.716-2.952 2.574-5.032 2.574-1.93 0-3.535-.767-4.815-2.302l-.36 2.1h-2.595zm2.955-4.216c1.52 1.41 2.97 2.116 4.35 2.116 2.84 0 4.26-2.245 4.26-6.736 0-3.962-1.26-5.943-3.78-5.943-1.65 0-3.26.928-4.83 2.785v7.778zm35.01 3.485c-1.98.622-3.676.933-5.086.933-2.4 0-4.357-.827-5.872-2.48-1.515-1.655-2.272-3.8-2.272-6.434 0-2.562.667-4.662 2.002-6.3 1.335-1.64 3.042-2.458 5.122-2.458 1.97 0 3.493.726 4.568 2.178 1.075 1.452 1.612 3.515 1.612 6.191l-.015.95h-10.275c.43 4.013 2.325 6.02 5.685 6.02 1.23 0 2.74-.342 4.53-1.027v2.427zm-10.08-9.723h7.184c0-3.143-1.13-4.714-3.39-4.714-2.27 0-3.535 1.571-3.795 4.714zm26.834 10.656c-1.5 0-2.67-.446-3.51-1.337-.84-.892-1.26-2.132-1.26-3.719v-9.925h-2.04v-2.303h2.04v-3.064l2.955-.296v3.36h4.26v2.303h-4.26v9.365c0 2.21.92 3.314 2.76 3.314.39 0 .865-.067 1.425-.202v2.116c-.91.259-1.7.388-2.37.388zm18.18 0c-1.5 0-2.67-.446-3.51-1.337-.84-.892-1.26-2.132-1.26-3.719v-9.925h-2.04v-2.303h2.04v-3.064l2.955-.296v3.36h4.26v2.303h-4.26v9.365c0 2.21.92 3.314 2.76 3.314.39 0 .865-.067 1.425-.202v2.116c-.91.259-1.7.388-2.37.388zm13.29-.388v-16.896h2.955v16.896h-2.955zm0-19.96v-3.065h2.955v3.065h-2.955zm15.57 19.96v-16.896h2.955v3.174c1.56-2.365 3.47-3.547 5.73-3.547 1.41 0 2.535.464 3.375 1.392.84.929 1.26 2.176 1.26 3.742v12.135h-2.955v-11.14c0-1.254-.177-2.149-.532-2.683-.355-.534-.943-.801-1.763-.801-1.81 0-3.515 1.229-5.115 3.687v10.937h-2.955zm25.815 5.616l.345-2.66c1.71.84 3.395 1.26 5.055 1.26 3.33 0 4.995-1.831 4.995-5.492v-2.66c-1.09 2.364-2.88 3.547-5.37 3.547-1.95 0-3.5-.737-4.65-2.21-1.15-1.472-1.725-3.458-1.725-5.958 0-2.572.655-4.667 1.965-6.285 1.31-1.618 3.005-2.427 5.085-2.427 1.82 0 3.385.768 4.695 2.303v-1.93h2.97v12.29c0 2.645-.133 4.603-.398 5.873-.265 1.27-.762 2.31-1.492 3.12-1.29 1.42-3.295 2.13-6.015 2.13-1.9 0-3.72-.3-5.46-.901zm10.395-11.466v-7.016c-1.3-1.4-2.715-2.1-4.245-2.1-1.36 0-2.425.565-3.195 1.695-.77 1.13-1.155 2.681-1.155 4.652 0 3.702 1.255 5.554 3.765 5.554 1.71 0 3.32-.928 4.83-2.785zm31.8 11.995v-23.04h2.955v3.173c1.21-2.365 3.025-3.547 5.445-3.547 1.96 0 3.502.742 4.627 2.225s1.688 3.51 1.688 6.083c0 2.8-.638 5.058-1.913 6.775-1.275 1.716-2.952 2.574-5.032 2.574-1.93 0-3.535-.767-4.815-2.302v8.059h-2.955zm2.955-10.175c1.52 1.41 2.97 2.116 4.35 2.116 2.84 0 4.26-2.245 4.26-6.736 0-3.962-1.26-5.943-3.78-5.943-1.65 0-3.26.928-4.83 2.785v7.778zm23.07 4.03v-24.565h2.955v24.565h-2.955zm23.97-2.147c-1.77 1.69-3.475 2.535-5.115 2.535-1.35 0-2.47-.438-3.36-1.314-.89-.877-1.335-1.984-1.335-3.322 0-1.846.747-3.264 2.242-4.254 1.495-.99 3.638-1.486 6.428-1.486h.705v-2.038c0-1.96-.97-2.94-2.91-2.94-1.56 0-3.245.497-5.055 1.493v-2.536c1.99-.84 3.855-1.26 5.595-1.26 1.82 0 3.162.425 4.027 1.276.865.85 1.298 2.173 1.298 3.967v7.654c0 1.753.52 2.63 1.56 2.63.13 0 .32-.022.57-.063l.21 1.696c-.67.331-1.41.497-2.22.497-1.38 0-2.26-.845-2.64-2.535zm-.435-1.665v-4.372l-.99-.03c-1.62 0-2.93.318-3.93.956-1 .638-1.5 1.475-1.5 2.513 0 .736.25 1.358.75 1.866.5.509 1.11.763 1.83.763 1.23 0 2.51-.565 3.84-1.696zm20.58 4.2c-1.5 0-2.67-.446-3.51-1.337-.84-.892-1.26-2.132-1.26-3.719v-9.925h-2.04v-2.303h2.04v-3.064l2.955-.296v3.36h4.26v2.303h-4.26v9.365c0 2.21.92 3.314 2.76 3.314.39 0 .865-.067 1.425-.202v2.116c-.91.259-1.7.388-2.37.388zm16.815-14.981v14.593h-2.97v-14.593h-2.31v-2.303h2.31v-2.022c0-4.024 1.77-6.036 5.31-6.036.99 0 2.114.171 3.374.513v2.427c-1.33-.425-2.395-.638-3.195-.638-.97 0-1.632.241-1.987.724-.355.482-.532 1.377-.532 2.683v2.35h4.064v2.302h-4.064zm20.834 14.981c-2.33 0-4.19-.8-5.58-2.403-1.39-1.603-2.084-3.747-2.084-6.433 0-2.717.697-4.867 2.092-6.448 1.395-1.582 3.287-2.373 5.677-2.373 2.39 0 4.283.79 5.678 2.373 1.395 1.581 2.092 3.72 2.092 6.417 0 2.759-.7 4.926-2.1 6.503-1.4 1.576-3.325 2.364-5.775 2.364zm.045-2.302c3.13 0 4.695-2.188 4.695-6.565 0-4.325-1.545-6.487-4.635-6.487-3.08 0-4.62 2.172-4.62 6.518 0 4.356 1.52 6.534 4.56 6.534zm19.14 1.914v-16.896h2.955v3.174c1.17-2.365 2.87-3.547 5.1-3.547.3 0 .615.026.945.078v2.862c-.51-.176-.96-.264-1.35-.264-1.87 0-3.435 1.151-4.695 3.454v11.139h-2.955zm19.26 0v-16.896h2.955v3.174c1.44-2.365 3.29-3.547 5.55-3.547 2.18 0 3.665 1.182 4.455 3.547 1.4-2.375 3.22-3.562 5.46-3.562 1.44 0 2.555.438 3.345 1.314.79.877 1.185 2.103 1.185 3.68v12.29h-2.97v-11.808c0-1.93-.735-2.894-2.205-2.894-1.53 0-3.135 1.125-4.815 3.376v11.326h-2.97v-11.808c0-1.94-.75-2.91-2.25-2.91-1.49 0-3.085 1.13-4.785 3.392v11.326h-2.955z" opacity=".61"/>
    </g>
</svg>
