<svg xmlns="http://www.w3.org/2000/svg" width="40" height="37" viewBox="0 0 40 37">
    <g fill="#0E3F91" fill-rule="nonzero">
        <path d="M36.235.066H3.763A3.767 3.767 0 0 0 0 3.829V25.81a3.767 3.767 0 0 0 3.763 3.763h12.362l-.665 4.708H12.34a1.04 1.04 0 1 0 0 2.081H27.657a1.04 1.04 0 1 0 0-2.081h-3.119l-.665-4.708h12.362a3.767 3.767 0 0 0 3.763-3.763V3.829A3.767 3.767 0 0 0 36.235.066zM3.763 2.148h32.472c.927 0 1.681.754 1.681 1.68v19.24H2.082V3.828c0-.926.754-1.68 1.68-1.68zM22.436 34.28h-4.874l.665-4.707h3.544l.665 4.707zm13.8-6.79H3.762a1.683 1.683 0 0 1-1.681-1.68v-.661h35.834v.66c0 .928-.754 1.682-1.68 1.682z"/>
        <path d="M15.143 18.742h9.712a1.04 1.04 0 0 0 1.04-1.041v-6.165a1.04 1.04 0 0 0-.413-.831l-4.856-3.662a1.04 1.04 0 0 0-1.254 0l-4.855 3.662a1.04 1.04 0 0 0-.415.83v6.166c0 .575.466 1.04 1.041 1.04zm1.041-6.688L20 9.178l3.815 2.876v4.606h-2.705v-2.182a.38.38 0 0 0-.38-.38h-1.46a.38.38 0 0 0-.38.38v2.182h-2.705v-4.606z"/>
    </g>
</svg>
