<svg xmlns="http://www.w3.org/2000/svg" width="40" height="40" viewBox="0 0 40 40">
    <g fill="#4371C7" fill-rule="nonzero">
        <path d="M5.829 19.2a3.5 3.5 0 0 0 2.457-1.01l3.475 1.766a3.646 3.646 0 0 0-.028.444c0 1.985 1.59 3.6 3.543 3.6 1.954 0 3.543-1.615 3.543-3.6 0-.555-.125-1.081-.346-1.551l4.724-4.8c.463.224.98.351 1.527.351 1.953 0 3.543-1.615 3.543-3.6 0-.375-.057-.737-.162-1.077l4.104-3.127a3.482 3.482 0 0 0 1.962.604c1.954 0 3.543-1.615 3.543-3.6S36.124 0 34.171 0 30.63 1.615 30.63 3.6c0 .375.056.737.162 1.077l-4.105 3.127a3.482 3.482 0 0 0-1.962-.604c-1.954 0-3.543 1.615-3.543 3.6 0 .555.125 1.081.346 1.551l-4.724 4.8a3.477 3.477 0 0 0-1.527-.351 3.5 3.5 0 0 0-2.457 1.01l-3.476-1.766c.018-.146.028-.293.028-.444 0-1.985-1.589-3.6-3.542-3.6-1.954 0-3.543 1.615-3.543 3.6s1.59 3.6 3.543 3.6zM34.17 2.4c.651 0 1.181.538 1.181 1.2 0 .662-.53 1.2-1.18 1.2a1.192 1.192 0 0 1-1.182-1.2c0-.662.53-1.2 1.181-1.2zm-9.447 7.2c.65 0 1.18.538 1.18 1.2 0 .662-.53 1.2-1.18 1.2a1.192 1.192 0 0 1-1.181-1.2c0-.662.53-1.2 1.18-1.2zm-9.448 9.6c.651 0 1.181.538 1.181 1.2 0 .662-.53 1.2-1.18 1.2a1.192 1.192 0 0 1-1.182-1.2c0-.662.53-1.2 1.181-1.2zM5.83 14.4c.65 0 1.18.538 1.18 1.2 0 .662-.53 1.2-1.18 1.2a1.192 1.192 0 0 1-1.181-1.2c0-.662.53-1.2 1.18-1.2z"/>
        <path d="M38.828 37.632h-1.25v-25.02c0-.653-.524-1.183-1.172-1.183H31.72c-.648 0-1.172.53-1.172 1.183v25.02h-2.344V19.716c0-.654-.524-1.184-1.172-1.184h-4.687c-.648 0-1.172.53-1.172 1.184v17.916h-2.344v-8.445c0-.654-.524-1.184-1.172-1.184H12.97c-.648 0-1.172.53-1.172 1.184v8.445H9.453v-13.18c0-.654-.524-1.184-1.172-1.184H3.594c-.648 0-1.172.53-1.172 1.183v13.181h-1.25c-.647 0-1.172.53-1.172 1.184C0 39.47.525 40 1.172 40h37.656c.647 0 1.172-.53 1.172-1.184 0-.654-.525-1.184-1.172-1.184zm-5.937-23.836h2.343v23.836h-2.343V13.796zM23.516 20.9h2.343v16.732h-2.343V20.9zM14.14 30.37h2.343v7.261h-2.343v-7.261zm-9.375-4.736h2.343v11.997H4.766V25.635z"/>
    </g>
</svg>
